<svg width="20" height="21" viewBox="0 0 20 21" fill="none" xmlns="http://www.w3.org/2000/svg">
<path d="M7.99954 4.49869H11.9995C11.9995 3.96825 11.7888 3.45955 11.4138 3.08447C11.0387 2.7094 10.53 2.49869 9.99954 2.49869C9.46911 2.49869 8.9604 2.7094 8.58533 3.08447C8.21026 3.45955 7.99954 3.96825 7.99954 4.49869ZM5.99954 4.49869C5.99954 3.43782 6.42097 2.42041 7.17111 1.67026C7.92126 0.920115 8.93868 0.498688 9.99954 0.498688C11.0604 0.498688 12.0778 0.920115 12.828 1.67026C13.5781 2.42041 13.9995 3.43782 13.9995 4.49869H18.9995C19.2648 4.49869 19.5191 4.60404 19.7066 4.79158C19.8942 4.97912 19.9995 5.23347 19.9995 5.49869C19.9995 5.7639 19.8942 6.01826 19.7066 6.20579C19.5191 6.39333 19.2648 6.49869 18.9995 6.49869H18.1175L17.2315 16.8387C17.1464 17.8372 16.6895 18.7673 15.9514 19.445C15.2133 20.1228 14.2476 20.4988 13.2455 20.4987H6.75354C5.75145 20.4988 4.78582 20.1228 4.04769 19.445C3.30957 18.7673 2.85272 17.8372 2.76754 16.8387L1.88154 6.49869H0.999542C0.734326 6.49869 0.479972 6.39333 0.292435 6.20579C0.104899 6.01826 -0.000457764 5.7639 -0.000457764 5.49869C-0.000457764 5.23347 0.104899 4.97912 0.292435 4.79158C0.479972 4.60404 0.734326 4.49869 0.999542 4.49869H5.99954ZM12.9995 10.4987C12.9995 10.2335 12.8942 9.97912 12.7066 9.79158C12.5191 9.60404 12.2648 9.49869 11.9995 9.49869C11.7343 9.49869 11.48 9.60404 11.2924 9.79158C11.1049 9.97912 10.9995 10.2335 10.9995 10.4987V14.4987C10.9995 14.7639 11.1049 15.0183 11.2924 15.2058C11.48 15.3933 11.7343 15.4987 11.9995 15.4987C12.2648 15.4987 12.5191 15.3933 12.7066 15.2058C12.8942 15.0183 12.9995 14.7639 12.9995 14.4987V10.4987ZM7.99954 9.49869C8.26476 9.49869 8.51911 9.60404 8.70665 9.79158C8.89419 9.97912 8.99954 10.2335 8.99954 10.4987V14.4987C8.99954 14.7639 8.89419 15.0183 8.70665 15.2058C8.51911 15.3933 8.26476 15.4987 7.99954 15.4987C7.73433 15.4987 7.47997 15.3933 7.29244 15.2058C7.1049 15.0183 6.99954 14.7639 6.99954 14.4987V10.4987C6.99954 10.2335 7.1049 9.97912 7.29244 9.79158C7.47997 9.60404 7.73433 9.49869 7.99954 9.49869ZM4.75954 16.6687C4.80215 17.1681 5.03071 17.6333 5.39999 17.9722C5.76926 18.3111 6.25232 18.499 6.75354 18.4987H13.2455C13.7464 18.4985 14.229 18.3104 14.5978 17.9715C14.9667 17.6327 15.195 17.1677 15.2375 16.6687L16.1095 6.49869H3.88954L4.75954 16.6687Z" fill="#E91F29"/>
</svg>
